<?xml version="1.0" standalone="no"?>
<!DOCTYPE svg PUBLIC "-//W3C//DTD SVG 20010904//EN"
 "http://www.w3.org/TR/2001/REC-SVG-20010904/DTD/svg10.dtd">
<svg version="1.0" xmlns="http://www.w3.org/2000/svg"
 width="20896.000000pt" height="9646.000000pt" viewBox="0 0 20896.000000 9646.000000"
 preserveAspectRatio="xMidYMid meet">

<g transform="translate(0.000000,9646.000000) scale(0.100000,-0.100000)"
fill="#000000" stroke="none">
<path d="M0 48230 l0 -48230 104480 0 104480 0 0 48230 0 48230 -104480 0
-104480 0 0 -48230z m129450 9870 l0 -40 495 0 495 0 0 -45 0 -45 285 0 285 0
0 -40 0 -40 205 0 205 0 0 -40 0 -40 165 0 165 0 0 -40 0 -40 160 0 160 0 0
-40 0 -40 125 0 125 0 0 -45 0 -45 120 0 120 0 0 -40 0 -40 125 0 125 0 0 -40
0 -40 125 0 125 0 0 -40 0 -40 80 0 80 0 0 -40 0 -40 80 0 80 0 0 -45 0 -45
85 0 85 0 0 -40 0 -40 80 0 80 0 0 -40 0 -40 80 0 80 0 0 -40 0 -40 85 0 85 0
0 -40 0 -40 80 0 80 0 0 -40 0 -40 40 0 40 0 0 -45 0 -45 85 0 85 0 0 -40 0
-40 40 0 40 0 0 -40 0 -40 80 0 80 0 0 -40 0 -40 45 0 45 0 0 -40 0 -40 40 0
40 0 0 -45 0 -45 40 0 40 0 0 -40 0 -40 40 0 40 0 0 -40 0 -40 40 0 40 0 0
-40 0 -40 85 0 85 0 0 -40 0 -40 40 0 40 0 0 -85 0 -85 40 0 40 0 0 -40 0 -40
40 0 40 0 0 -40 0 -40 40 0 40 0 0 -40 0 -40 45 0 45 0 0 -40 0 -40 40 0 40 0
0 -85 0 -85 40 0 40 0 0 -40 0 -40 40 0 40 0 0 -80 0 -80 40 0 40 0 0 -85 0
-85 45 0 45 0 0 -80 0 -80 40 0 40 0 0 -85 0 -85 40 0 40 0 0 -120 0 -120 40
0 40 0 0 -165 0 -165 40 0 40 0 0 -615 0 -615 -40 0 -40 0 0 -160 0 -160 -40
0 -40 0 0 -125 0 -125 -40 0 -40 0 0 -125 0 -125 -40 0 -40 0 0 -80 0 -80 -45
0 -45 0 0 -80 0 -80 -40 0 -40 0 0 -40 0 -40 -40 0 -40 0 0 -85 0 -85 -40 0
-40 0 0 -40 0 -40 -40 0 -40 0 0 -40 0 -40 -45 0 -45 0 0 -40 0 -40 -40 0 -40
0 0 -85 0 -85 -40 0 -40 0 0 -40 0 -40 -40 0 -40 0 0 -40 0 -40 -40 0 -40 0 0
-40 0 -40 -85 0 -85 0 0 -45 0 -45 -40 0 -40 0 0 -40 0 -40 -40 0 -40 0 0 -40
0 -40 -80 0 -80 0 0 -40 0 -40 -45 0 -45 0 0 -40 0 -40 -80 0 -80 0 0 -40 0
-40 -40 0 -40 0 0 -45 0 -45 -85 0 -85 0 0 -40 0 -40 -120 0 -120 0 0 -40 0
-40 -85 0 -85 0 0 -80 0 -80 125 0 125 0 0 -45 0 -45 80 0 80 0 0 -40 0 -40
125 0 125 0 0 -40 0 -40 80 0 80 0 0 -40 0 -40 85 0 85 0 0 -40 0 -40 80 0 80
0 0 -45 0 -45 80 0 80 0 0 -40 0 -40 45 0 45 0 0 -40 0 -40 80 0 80 0 0 -40 0
-40 80 0 80 0 0 -40 0 -40 45 0 45 0 0 -40 0 -40 40 0 40 0 0 -45 0 -45 80 0
80 0 0 -40 0 -40 40 0 40 0 0 -40 0 -40 45 0 45 0 0 -40 0 -40 40 0 40 0 0
-40 0 -40 40 0 40 0 0 -45 0 -45 40 0 40 0 0 -40 0 -40 40 0 40 0 0 -40 0 -40
40 0 40 0 0 -40 0 -40 45 0 45 0 0 -40 0 -40 40 0 40 0 0 -45 0 -45 40 0 40 0
0 -40 0 -40 40 0 40 0 0 -40 0 -40 40 0 40 0 0 -80 0 -80 45 0 45 0 0 -125 0
-125 -45 0 -45 0 0 -80 0 -80 -40 0 -40 0 0 -40 0 -40 -40 0 -40 0 0 -85 0
-85 -40 0 -40 0 0 -40 0 -40 -40 0 -40 0 0 -40 0 -40 -45 0 -45 0 0 -85 0 -85
-40 0 -40 0 0 -40 0 -40 -40 0 -40 0 0 -40 0 -40 -40 0 -40 0 0 -40 0 -40 -40
0 -40 0 0 -40 0 -40 -40 0 -40 0 0 -45 0 -45 -45 0 -45 0 0 -40 0 -40 -40 0
-40 0 0 -40 0 -40 -80 0 -80 0 0 -40 0 -40 -40 0 -40 0 0 -40 0 -40 -45 0 -45
0 0 -40 0 -40 -80 0 -80 0 0 -45 0 -45 -80 0 -80 0 0 -40 0 -40 -85 0 -85 0 0
-40 0 -40 -120 0 -120 0 0 -40 0 -40 -165 0 -165 0 0 -40 0 -40 -165 0 -165 0
0 -45 0 -45 125 0 125 0 0 -40 0 -40 120 0 120 0 0 -40 0 -40 205 0 205 0 0
-40 0 -40 655 0 655 0 0 40 0 40 205 0 205 0 0 40 0 40 85 0 85 0 0 40 0 40
120 0 120 0 0 45 0 45 40 0 40 0 0 40 0 40 85 0 85 0 0 40 0 40 80 0 80 0 0
40 0 40 40 0 40 0 0 -120 0 -120 40 0 40 0 0 -250 0 -250 -40 0 -40 0 0 -285
0 -285 -40 0 -40 0 0 -165 0 -165 -40 0 -40 0 0 -120 0 -120 -80 0 -80 0 0
-40 0 -40 -85 0 -85 0 0 -45 0 -45 -40 0 -40 0 0 -40 0 -40 -80 0 -80 0 0 -40
0 -40 -85 0 -85 0 0 -40 0 -40 -80 0 -80 0 0 -40 0 -40 -85 0 -85 0 0 -40 0
-40 -120 0 -120 0 0 -45 0 -45 -125 0 -125 0 0 -40 0 -40 -160 0 -160 0 0 -40
0 -40 -250 0 -250 0 0 -40 0 -40 -490 0 -490 0 0 40 0 40 -205 0 -205 0 0 -40
0 -40 85 0 85 0 0 -40 0 -40 40 0 40 0 0 -45 0 -45 40 0 40 0 0 -40 0 -40 80
0 80 0 0 -40 0 -40 45 0 45 0 0 -40 0 -40 80 0 80 0 0 -40 0 -40 80 0 80 0 0
-45 0 -45 85 0 85 0 0 -40 0 -40 120 0 120 0 0 -40 0 -40 165 0 165 0 0 -40 0
-40 490 0 490 0 0 -40 0 -40 -40 0 -40 0 0 -40 0 -40 -40 0 -40 0 0 -45 0 -45
-40 0 -40 0 0 -40 0 -40 -40 0 -40 0 0 -40 0 -40 -45 0 -45 0 0 -40 0 -40 -40
0 -40 0 0 -40 0 -40 -80 0 -80 0 0 -45 0 -45 -40 0 -40 0 0 -40 0 -40 -45 0
-45 0 0 -40 0 -40 -80 0 -80 0 0 -40 0 -40 -40 0 -40 0 0 -40 0 -40 -85 0 -85
0 0 -45 0 -45 -40 0 -40 0 0 -40 0 -40 -80 0 -80 0 0 -40 0 -40 -80 0 -80 0 0
-40 0 -40 -45 0 -45 0 0 -40 0 -40 -80 0 -80 0 0 -40 0 -40 -80 0 -80 0 0 -45
0 -45 -85 0 -85 0 0 -40 0 -40 -80 0 -80 0 0 -40 0 -40 -125 0 -125 0 0 -40 0
-40 -80 0 -80 0 0 -40 0 -40 -125 0 -125 0 0 -45 0 -45 -120 0 -120 0 0 -40 0
-40 -125 0 -125 0 0 -40 0 -40 -120 0 -120 0 0 -40 0 -40 -165 0 -165 0 0 -40
0 -40 -165 0 -165 0 0 -45 0 -45 -165 0 -165 0 0 -40 0 -40 -245 0 -245 0 0
-40 0 -40 -285 0 -285 0 0 -40 0 -40 -615 0 -615 0 0 -40 0 -40 -325 0 -325 0
0 40 0 40 -575 0 -575 0 0 40 0 40 -285 0 -285 0 0 40 0 40 -205 0 -205 0 0
40 0 40 -205 0 -205 0 0 45 0 45 -165 0 -165 0 0 40 0 40 -125 0 -125 0 0 40
0 40 -120 0 -120 0 0 40 0 40 -125 0 -125 0 0 40 0 40 -120 0 -120 0 0 45 0
45 -125 0 -125 0 0 40 0 40 -80 0 -80 0 0 40 0 40 -125 0 -125 0 0 40 0 40
-80 0 -80 0 0 40 0 40 -80 0 -80 0 0 45 0 45 -85 0 -85 0 0 40 0 40 -80 0 -80
0 0 40 0 40 -85 0 -85 0 0 40 0 40 -40 0 -40 0 0 40 0 40 -80 0 -80 0 0 40 0
40 -85 0 -85 0 0 45 0 45 -40 0 -40 0 0 40 0 40 -80 0 -80 0 0 40 0 40 -40 0
-40 0 0 40 0 40 -40 0 -40 0 0 40 0 40 -85 0 -85 0 0 45 0 45 -40 0 -40 0 0
40 0 40 -40 0 -40 0 0 40 0 40 -85 0 -85 0 0 40 0 40 -40 0 -40 0 0 40 0 40
-40 0 -40 0 0 45 0 45 -40 0 -40 0 0 40 0 40 -40 0 -40 0 0 40 0 40 -45 0 -45
0 0 40 0 40 -40 0 -40 0 0 40 0 40 -40 0 -40 0 0 40 0 40 -40 0 -40 0 0 45 0
45 -40 0 -40 0 0 80 0 80 -40 0 -40 0 0 40 0 40 -45 0 -45 0 0 40 0 40 -40 0
-40 0 0 85 0 85 -40 0 -40 0 0 40 0 40 -40 0 -40 0 0 80 0 80 -40 0 -40 0 0
45 0 45 -45 0 -45 0 0 80 0 80 -40 0 -40 0 0 80 0 80 -40 0 -40 0 0 85 0 85
-40 0 -40 0 0 120 0 120 -40 0 -40 0 0 125 0 125 -45 0 -45 0 0 120 0 120 85
0 85 0 0 45 0 45 245 0 245 0 0 40 0 40 205 0 205 0 0 40 0 40 245 0 245 0 0
40 0 40 245 0 245 0 0 40 0 40 205 0 205 0 0 40 0 40 245 0 245 0 0 45 0 45
205 0 205 0 0 40 0 40 245 0 245 0 0 40 0 40 245 0 245 0 0 40 0 40 205 0 205
0 0 40 0 40 290 0 290 0 0 -40 0 -40 40 0 40 0 0 -80 0 -80 40 0 40 0 0 -40 0
-40 40 0 40 0 0 -45 0 -45 40 0 40 0 0 -80 0 -80 45 0 45 0 0 -40 0 -40 80 0
80 0 0 -40 0 -40 40 0 40 0 0 -40 0 -40 40 0 40 0 0 -45 0 -45 85 0 85 0 0
-40 0 -40 80 0 80 0 0 -40 0 -40 80 0 80 0 0 -40 0 -40 85 0 85 0 0 -40 0 -40
120 0 120 0 0 -45 0 -45 125 0 125 0 0 -40 0 -40 245 0 245 0 0 -40 0 -40 655
0 655 0 0 40 0 40 205 0 205 0 0 40 0 40 125 0 125 0 0 45 0 45 80 0 80 0 0
40 0 40 80 0 80 0 0 40 0 40 45 0 45 0 0 40 0 40 80 0 80 0 0 40 0 40 40 0 40
0 0 45 0 45 40 0 40 0 0 40 0 40 45 0 45 0 0 40 0 40 40 0 40 0 0 40 0 40 40
0 40 0 0 80 0 80 40 0 40 0 0 45 0 45 40 0 40 0 0 120 0 120 40 0 40 0 0 165
0 165 45 0 45 0 0 165 0 165 -45 0 -45 0 0 205 0 205 -40 0 -40 0 0 80 0 80
-40 0 -40 0 0 80 0 80 -40 0 -40 0 0 85 0 85 -40 0 -40 0 0 40 0 40 -40 0 -40
0 0 40 0 40 -45 0 -45 0 0 40 0 40 -40 0 -40 0 0 45 0 45 -40 0 -40 0 0 40 0
40 -40 0 -40 0 0 40 0 40 -40 0 -40 0 0 40 0 40 -45 0 -45 0 0 40 0 40 -80 0
-80 0 0 40 0 40 -80 0 -80 0 0 45 0 45 -45 0 -45 0 0 40 0 40 -80 0 -80 0 0
40 0 40 -80 0 -80 0 0 40 0 40 -125 0 -125 0 0 40 0 40 -80 0 -80 0 0 45 0 45
-125 0 -125 0 0 40 0 40 -165 0 -165 0 0 40 0 40 -160 0 -160 0 0 40 0 40
-205 0 -205 0 0 40 0 40 -290 0 -290 0 0 45 0 45 -695 0 -695 0 0 160 0 160
40 0 40 0 0 125 0 125 45 0 45 0 0 120 0 120 40 0 40 0 0 125 0 125 40 0 40 0
0 125 0 125 40 0 40 0 0 120 0 120 40 0 40 0 0 125 0 125 45 0 45 0 0 80 0 80
40 0 40 0 0 80 0 80 40 0 40 0 0 45 0 45 530 0 530 0 0 40 0 40 250 0 250 0 0
40 0 40 120 0 120 0 0 40 0 40 125 0 125 0 0 40 0 40 120 0 120 0 0 45 0 45
85 0 85 0 0 40 0 40 80 0 80 0 0 40 0 40 80 0 80 0 0 40 0 40 45 0 45 0 0 40
0 40 40 0 40 0 0 45 0 45 80 0 80 0 0 40 0 40 40 0 40 0 0 40 0 40 40 0 40 0
0 80 0 80 45 0 45 0 0 40 0 40 40 0 40 0 0 85 0 85 40 0 40 0 0 205 0 205 40
0 40 0 0 40 0 40 -40 0 -40 0 0 205 0 205 -40 0 -40 0 0 80 0 80 -40 0 -40 0
0 40 0 40 -45 0 -45 0 0 85 0 85 -40 0 -40 0 0 40 0 40 -80 0 -80 0 0 40 0 40
-40 0 -40 0 0 40 0 40 -85 0 -85 0 0 45 0 45 -80 0 -80 0 0 40 0 40 -205 0
-205 0 0 40 0 40 -410 0 -410 0 0 -40 0 -40 -165 0 -165 0 0 -40 0 -40 -120 0
-120 0 0 -45 0 -45 -85 0 -85 0 0 -40 0 -40 -40 0 -40 0 0 -40 0 -40 -80 0
-80 0 0 -40 0 -40 -40 0 -40 0 0 -40 0 -40 -45 0 -45 0 0 -45 0 -45 -40 0 -40
0 0 -40 0 -40 -40 0 -40 0 0 -40 0 -40 -40 0 -40 0 0 -80 0 -80 -40 0 -40 0 0
-85 0 -85 -205 0 -205 0 0 45 0 45 -290 0 -290 0 0 40 0 40 -245 0 -245 0 0
40 0 40 -245 0 -245 0 0 40 0 40 -245 0 -245 0 0 40 0 40 -245 0 -245 0 0 40
0 40 -245 0 -245 0 0 45 0 45 -245 0 -245 0 0 40 0 40 -290 0 -290 0 0 40 0
40 -245 0 -245 0 0 40 0 40 -160 0 -160 0 0 165 0 165 40 0 40 0 0 80 0 80 40
0 40 0 0 125 0 125 40 0 40 0 0 80 0 80 40 0 40 0 0 40 0 40 40 0 40 0 0 85 0
85 45 0 45 0 0 80 0 80 40 0 40 0 0 40 0 40 40 0 40 0 0 85 0 85 40 0 40 0 0
40 0 40 40 0 40 0 0 40 0 40 45 0 45 0 0 40 0 40 40 0 40 0 0 85 0 85 40 0 40
0 0 40 0 40 40 0 40 0 0 40 0 40 40 0 40 0 0 40 0 40 45 0 45 0 0 40 0 40 40
0 40 0 0 45 0 45 40 0 40 0 0 40 0 40 40 0 40 0 0 40 0 40 40 0 40 0 0 40 0
40 85 0 85 0 0 40 0 40 40 0 40 0 0 45 0 45 40 0 40 0 0 40 0 40 40 0 40 0 0
40 0 40 85 0 85 0 0 40 0 40 40 0 40 0 0 40 0 40 80 0 80 0 0 45 0 45 40 0 40
0 0 40 0 40 85 0 85 0 0 40 0 40 80 0 80 0 0 40 0 40 40 0 40 0 0 40 0 40 85
0 85 0 0 40 0 40 80 0 80 0 0 45 0 45 125 0 125 0 0 40 0 40 80 0 80 0 0 40 0
40 125 0 125 0 0 40 0 40 80 0 80 0 0 40 0 40 120 0 120 0 0 45 0 45 125 0
125 0 0 40 0 40 165 0 165 0 0 40 0 40 165 0 165 0 0 40 0 40 200 0 200 0 0
40 0 40 290 0 290 0 0 45 0 45 450 0 450 0 0 40 0 40 530 0 530 0 0 -40z
m-54040 -85 l0 -45 1150 0 1150 0 0 -40 0 -40 40 0 40 0 0 -40 0 -40 40 0 40
0 0 -40 0 -40 40 0 40 0 0 -40 0 -40 40 0 40 0 0 -85 0 -85 40 0 40 0 0 -40 0
-40 45 0 45 0 0 -40 0 -40 40 0 40 0 0 -40 0 -40 40 0 40 0 0 -85 0 -85 40 0
40 0 0 -40 0 -40 40 0 40 0 0 -40 0 -40 45 0 45 0 0 -40 0 -40 40 0 40 0 0
-85 0 -85 40 0 40 0 0 -40 0 -40 40 0 40 0 0 -40 0 -40 40 0 40 0 0 -40 0 -40
45 0 45 0 0 -85 0 -85 40 0 40 0 0 -40 0 -40 40 0 40 0 0 -40 0 -40 40 0 40 0
0 -40 0 -40 40 0 40 0 0 -85 0 -85 40 0 40 0 0 -40 0 -40 45 0 45 0 0 -40 0
-40 40 0 40 0 0 -40 0 -40 40 0 40 0 0 -80 0 -80 40 0 40 0 0 -45 0 -45 40 0
40 0 0 -40 0 -40 45 0 45 0 0 -40 0 -40 40 0 40 0 0 -40 0 -40 40 0 40 0 0
-85 0 -85 40 0 40 0 0 -40 0 -40 40 0 40 0 0 -40 0 -40 45 0 45 0 0 -40 0 -40
40 0 40 0 0 -85 0 -85 40 0 40 0 0 -40 0 -40 40 0 40 0 0 -40 0 -40 40 0 40 0
0 -40 0 -40 40 0 40 0 0 -80 0 -80 45 0 45 0 0 -45 0 -45 40 0 40 0 0 -40 0
-40 40 0 40 0 0 -40 0 -40 40 0 40 0 0 -80 0 -80 40 0 40 0 0 -45 0 -45 45 0
45 0 0 -40 0 -40 40 0 40 0 0 -40 0 -40 40 0 40 0 0 -80 0 -80 40 0 40 0 0
-45 0 -45 40 0 40 0 0 -40 0 -40 45 0 45 0 0 -40 0 -40 40 0 40 0 0 -80 0 -80
40 0 40 0 0 -40 0 -40 40 0 40 0 0 -45 0 -45 40 0 40 0 0 -40 0 -40 45 0 45 0
0 -80 0 -80 40 0 40 0 0 -40 0 -40 40 0 40 0 0 -45 0 -45 40 0 40 0 0 -40 0
-40 40 0 40 0 0 -40 0 -40 40 0 40 0 0 -80 0 -80 45 0 45 0 0 -45 0 -45 40 0
40 0 0 -40 0 -40 40 0 40 0 0 -40 0 -40 40 0 40 0 0 -80 0 -80 40 0 40 0 0
-40 0 -40 45 0 45 0 0 -45 0 -45 40 0 40 0 0 -40 0 -40 40 0 40 0 0 -80 0 -80
40 0 40 0 0 -40 0 -40 40 0 40 0 0 -45 0 -45 45 0 45 0 0 -40 0 -40 40 0 40 0
0 -80 0 -80 40 0 40 0 0 -40 0 -40 40 0 40 0 0 -45 0 -45 40 0 40 0 0 -40 0
-40 40 0 40 0 0 -80 0 -80 45 0 45 0 0 -40 0 -40 40 0 40 0 0 -40 0 -40 80 0
80 0 0 40 0 40 40 0 40 0 0 40 0 40 45 0 45 0 0 80 0 80 40 0 40 0 0 40 0 40
40 0 40 0 0 45 0 45 40 0 40 0 0 40 0 40 40 0 40 0 0 80 0 80 45 0 45 0 0 40
0 40 40 0 40 0 0 45 0 45 40 0 40 0 0 40 0 40 40 0 40 0 0 80 0 80 40 0 40 0
0 40 0 40 40 0 40 0 0 45 0 45 45 0 45 0 0 40 0 40 40 0 40 0 0 80 0 80 40 0
40 0 0 40 0 40 40 0 40 0 0 40 0 40 40 0 40 0 0 45 0 45 45 0 45 0 0 80 0 80
40 0 40 0 0 40 0 40 40 0 40 0 0 40 0 40 40 0 40 0 0 85 0 85 40 0 40 0 0 40
0 40 45 0 45 0 0 40 0 40 40 0 40 0 0 40 0 40 40 0 40 0 0 85 0 85 40 0 40 0
0 40 0 40 40 0 40 0 0 40 0 40 40 0 40 0 0 40 0 40 45 0 45 0 0 85 0 85 40 0
40 0 0 40 0 40 40 0 40 0 0 40 0 40 40 0 40 0 0 40 0 40 40 0 40 0 0 85 0 85
45 0 45 0 0 40 0 40 40 0 40 0 0 40 0 40 40 0 40 0 0 40 0 40 40 0 40 0 0 85
0 85 40 0 40 0 0 40 0 40 45 0 45 0 0 40 0 40 40 0 40 0 0 40 0 40 40 0 40 0
0 80 0 80 40 0 40 0 0 45 0 45 40 0 40 0 0 40 0 40 40 0 40 0 0 40 0 40 45 0
45 0 0 80 0 80 40 0 40 0 0 45 0 45 40 0 40 0 0 40 0 40 40 0 40 0 0 40 0 40
40 0 40 0 0 80 0 80 45 0 45 0 0 45 0 45 40 0 40 0 0 40 0 40 40 0 40 0 0 80
0 80 40 0 40 0 0 40 0 40 40 0 40 0 0 40 0 40 45 0 45 0 0 45 0 45 40 0 40 0
0 80 0 80 40 0 40 0 0 40 0 40 40 0 40 0 0 40 0 40 40 0 40 0 0 45 0 45 40 0
40 0 0 80 0 80 45 0 45 0 0 40 0 40 40 0 40 0 0 40 0 40 40 0 40 0 0 45 0 45
40 0 40 0 0 80 0 80 40 0 40 0 0 40 0 40 45 0 45 0 0 40 0 40 40 0 40 0 0 40
0 40 40 0 40 0 0 85 0 85 40 0 40 0 0 40 0 40 40 0 40 0 0 40 0 40 45 0 45 0
0 40 0 40 40 0 40 0 0 85 0 85 40 0 40 0 0 40 0 40 40 0 40 0 0 40 0 40 40 0
40 0 0 40 0 40 40 0 40 0 0 45 0 45 3400 0 3400 0 0 -9295 0 -9295 -3440 0
-3440 0 0 3315 0 3315 -40 0 -40 0 0 -40 0 -40 -40 0 -40 0 0 -40 0 -40 -40 0
-40 0 0 -40 0 -40 -40 0 -40 0 0 -45 0 -45 -45 0 -45 0 0 -40 0 -40 -40 0 -40
0 0 -40 0 -40 -40 0 -40 0 0 -40 0 -40 -40 0 -40 0 0 -40 0 -40 -40 0 -40 0 0
-45 0 -45 -45 0 -45 0 0 -40 0 -40 -40 0 -40 0 0 -80 0 -80 -40 0 -40 0 0 -40
0 -40 -40 0 -40 0 0 -45 0 -45 -40 0 -40 0 0 -40 0 -40 -45 0 -45 0 0 -40 0
-40 -40 0 -40 0 0 -40 0 -40 -40 0 -40 0 0 -40 0 -40 -40 0 -40 0 0 -40 0 -40
-40 0 -40 0 0 -45 0 -45 -40 0 -40 0 0 -40 0 -40 -45 0 -45 0 0 -40 0 -40 -40
0 -40 0 0 -40 0 -40 -40 0 -40 0 0 -40 0 -40 -40 0 -40 0 0 -45 0 -45 -40 0
-40 0 0 -40 0 -40 -45 0 -45 0 0 -40 0 -40 -40 0 -40 0 0 -40 0 -40 -40 0 -40
0 0 -40 0 -40 -40 0 -40 0 0 -45 0 -45 -40 0 -40 0 0 -40 0 -40 -45 0 -45 0 0
-40 0 -40 -40 0 -40 0 0 -80 0 -80 -40 0 -40 0 0 -40 0 -40 -40 0 -40 0 0 -45
0 -45 -40 0 -40 0 0 -40 0 -40 -40 0 -40 0 0 -40 0 -40 -45 0 -45 0 0 -40 0
-40 -40 0 -40 0 0 -40 0 -40 -40 0 -40 0 0 -45 0 -45 -40 0 -40 0 0 -40 0 -40
-40 0 -40 0 0 -40 0 -40 -45 0 -45 0 0 -40 0 -40 -40 0 -40 0 0 -40 0 -40 -40
0 -40 0 0 -45 0 -45 -40 0 -40 0 0 -40 0 -40 -40 0 -40 0 0 -40 0 -40 -45 0
-45 0 0 -40 0 -40 -40 0 -40 0 0 -40 0 -40 -40 0 -40 0 0 -40 0 -40 -40 0 -40
0 0 -45 0 -45 -40 0 -40 0 0 -40 0 -40 -40 0 -40 0 0 -80 0 -80 -45 0 -45 0 0
-40 0 -40 -40 0 -40 0 0 -45 0 -45 -40 0 -40 0 0 -40 0 -40 -40 0 -40 0 0 -40
0 -40 -40 0 -40 0 0 -40 0 -40 -45 0 -45 0 0 -40 0 -40 -40 0 -40 0 0 -45 0
-45 -40 0 -40 0 0 -40 0 -40 -40 0 -40 0 0 -40 0 -40 -40 0 -40 0 0 -40 0 -40
-45 0 -45 0 0 -40 0 -40 -40 0 -40 0 0 -40 0 -40 -40 0 -40 0 0 -45 0 -45 -40
0 -40 0 0 -40 0 -40 -40 0 -40 0 0 -40 0 -40 -40 0 -40 0 0 -40 0 -40 -45 0
-45 0 0 -40 0 -40 -40 0 -40 0 0 -45 0 -45 -40 0 -40 0 0 -40 0 -40 -40 0 -40
0 0 -40 0 -40 -40 0 -40 0 0 -80 0 -80 -205 0 -205 0 0 40 0 40 -45 0 -45 0 0
40 0 40 -40 0 -40 0 0 40 0 40 -40 0 -40 0 0 40 0 40 -40 0 -40 0 0 45 0 45
-40 0 -40 0 0 40 0 40 -40 0 -40 0 0 40 0 40 -45 0 -45 0 0 40 0 40 -40 0 -40
0 0 40 0 40 -40 0 -40 0 0 45 0 45 -40 0 -40 0 0 40 0 40 -40 0 -40 0 0 40 0
40 -45 0 -45 0 0 40 0 40 -40 0 -40 0 0 40 0 40 -40 0 -40 0 0 40 0 40 -40 0
-40 0 0 85 0 85 -40 0 -40 0 0 40 0 40 -45 0 -45 0 0 40 0 40 -40 0 -40 0 0
40 0 40 -40 0 -40 0 0 45 0 45 -40 0 -40 0 0 40 0 40 -40 0 -40 0 0 40 0 40
-40 0 -40 0 0 40 0 40 -45 0 -45 0 0 40 0 40 -40 0 -40 0 0 45 0 45 -40 0 -40
0 0 40 0 40 -40 0 -40 0 0 40 0 40 -40 0 -40 0 0 40 0 40 -45 0 -45 0 0 40 0
40 -40 0 -40 0 0 40 0 40 -40 0 -40 0 0 45 0 45 -40 0 -40 0 0 40 0 40 -40 0
-40 0 0 40 0 40 -45 0 -45 0 0 40 0 40 -40 0 -40 0 0 40 0 40 -40 0 -40 0 0
45 0 45 -40 0 -40 0 0 40 0 40 -40 0 -40 0 0 80 0 80 -45 0 -45 0 0 40 0 40
-40 0 -40 0 0 45 0 45 -40 0 -40 0 0 40 0 40 -40 0 -40 0 0 40 0 40 -40 0 -40
0 0 40 0 40 -40 0 -40 0 0 40 0 40 -45 0 -45 0 0 40 0 40 -40 0 -40 0 0 45 0
45 -40 0 -40 0 0 40 0 40 -40 0 -40 0 0 40 0 40 -40 0 -40 0 0 40 0 40 -45 0
-45 0 0 40 0 40 -40 0 -40 0 0 45 0 45 -40 0 -40 0 0 40 0 40 -40 0 -40 0 0
40 0 40 -40 0 -40 0 0 40 0 40 -45 0 -45 0 0 40 0 40 -40 0 -40 0 0 45 0 45
-40 0 -40 0 0 40 0 40 -40 0 -40 0 0 40 0 40 -40 0 -40 0 0 80 0 80 -40 0 -40
0 0 40 0 40 -45 0 -45 0 0 45 0 45 -40 0 -40 0 0 40 0 40 -40 0 -40 0 0 40 0
40 -40 0 -40 0 0 40 0 40 -40 0 -40 0 0 40 0 40 -45 0 -45 0 0 45 0 45 -40 0
-40 0 0 40 0 40 -40 0 -40 0 0 40 0 40 -40 0 -40 0 0 40 0 40 -40 0 -40 0 0
40 0 40 -45 0 -45 0 0 45 0 45 -40 0 -40 0 0 40 0 40 -40 0 -40 0 0 40 0 40
-40 0 -40 0 0 -3235 0 -3235 -40 0 -40 0 0 -40 0 -40 -3440 0 -3440 0 0 9295
0 9295 2250 0 2250 0 0 -45z m40700 -2580 l0 -2125 -4340 0 -4340 0 0 -205 0
-205 -40 0 -40 0 0 -205 0 -205 -45 0 -45 0 0 -205 0 -205 -40 0 -40 0 0 -205
0 -205 -40 0 -40 0 0 -125 0 -125 80 0 80 0 0 45 0 45 125 0 125 0 0 40 0 40
125 0 125 0 0 40 0 40 200 0 200 0 0 40 0 40 205 0 205 0 0 40 0 40 290 0 290
0 0 40 0 40 1185 0 1185 0 0 -40 0 -40 330 0 330 0 0 -40 0 -40 205 0 205 0 0
-40 0 -40 205 0 205 0 0 -40 0 -40 160 0 160 0 0 -40 0 -40 125 0 125 0 0 -45
0 -45 120 0 120 0 0 -40 0 -40 125 0 125 0 0 -40 0 -40 125 0 125 0 0 -40 0
-40 80 0 80 0 0 -40 0 -40 80 0 80 0 0 -45 0 -45 125 0 125 0 0 -40 0 -40 40
0 40 0 0 -40 0 -40 80 0 80 0 0 -40 0 -40 85 0 85 0 0 -40 0 -40 80 0 80 0 0
-45 0 -45 40 0 40 0 0 -40 0 -40 85 0 85 0 0 -40 0 -40 40 0 40 0 0 -40 0 -40
80 0 80 0 0 -40 0 -40 40 0 40 0 0 -40 0 -40 45 0 45 0 0 -45 0 -45 80 0 80 0
0 -40 0 -40 40 0 40 0 0 -40 0 -40 40 0 40 0 0 -40 0 -40 45 0 45 0 0 -40 0
-40 40 0 40 0 0 -45 0 -45 40 0 40 0 0 -40 0 -40 40 0 40 0 0 -40 0 -40 40 0
40 0 0 -40 0 -40 45 0 45 0 0 -40 0 -40 40 0 40 0 0 -45 0 -45 40 0 40 0 0
-40 0 -40 40 0 40 0 0 -80 0 -80 40 0 40 0 0 -40 0 -40 45 0 45 0 0 -40 0 -40
40 0 40 0 0 -85 0 -85 40 0 40 0 0 -80 0 -80 40 0 40 0 0 -40 0 -40 40 0 40 0
0 -85 0 -85 40 0 40 0 0 -80 0 -80 45 0 45 0 0 -85 0 -85 40 0 40 0 0 -120 0
-120 40 0 40 0 0 -125 0 -125 40 0 40 0 0 -120 0 -120 40 0 40 0 0 -165 0
-165 45 0 45 0 0 -245 0 -245 40 0 40 0 0 -575 0 -575 -40 0 -40 0 0 -245 0
-245 -45 0 -45 0 0 -165 0 -165 -40 0 -40 0 0 -120 0 -120 -40 0 -40 0 0 -125
0 -125 -40 0 -40 0 0 -80 0 -80 -40 0 -40 0 0 -125 0 -125 -45 0 -45 0 0 -80
0 -80 -40 0 -40 0 0 -40 0 -40 -40 0 -40 0 0 -85 0 -85 -40 0 -40 0 0 -80 0
-80 -40 0 -40 0 0 -40 0 -40 -40 0 -40 0 0 -85 0 -85 -45 0 -45 0 0 -40 0 -40
-40 0 -40 0 0 -40 0 -40 -40 0 -40 0 0 -40 0 -40 -40 0 -40 0 0 -40 0 -40 -40
0 -40 0 0 -85 0 -85 -45 0 -45 0 0 -40 0 -40 -40 0 -40 0 0 -40 0 -40 -40 0
-40 0 0 -40 0 -40 -40 0 -40 0 0 -40 0 -40 -40 0 -40 0 0 -45 0 -45 -85 0 -85
0 0 -40 0 -40 -40 0 -40 0 0 -40 0 -40 -40 0 -40 0 0 -40 0 -40 -40 0 -40 0 0
-40 0 -40 -45 0 -45 0 0 -45 0 -45 -80 0 -80 0 0 -40 0 -40 -40 0 -40 0 0 -40
0 -40 -80 0 -80 0 0 -40 0 -40 -45 0 -45 0 0 -40 0 -40 -80 0 -80 0 0 -45 0
-45 -40 0 -40 0 0 -40 0 -40 -85 0 -85 0 0 -40 0 -40 -80 0 -80 0 0 -40 0 -40
-40 0 -40 0 0 -40 0 -40 -85 0 -85 0 0 -40 0 -40 -80 0 -80 0 0 -45 0 -45
-120 0 -120 0 0 -40 0 -40 -85 0 -85 0 0 -40 0 -40 -80 0 -80 0 0 -40 0 -40
-125 0 -125 0 0 -40 0 -40 -120 0 -120 0 0 -45 0 -45 -125 0 -125 0 0 -40 0
-40 -120 0 -120 0 0 -40 0 -40 -125 0 -125 0 0 -40 0 -40 -165 0 -165 0 0 -40
0 -40 -165 0 -165 0 0 -45 0 -45 -200 0 -200 0 0 -40 0 -40 -250 0 -250 0 0
-40 0 -40 -325 0 -325 0 0 -40 0 -40 -655 0 -655 0 0 -40 0 -40 -330 0 -330 0
0 40 0 40 -655 0 -655 0 0 40 0 40 -285 0 -285 0 0 40 0 40 -245 0 -245 0 0
40 0 40 -205 0 -205 0 0 45 0 45 -165 0 -165 0 0 40 0 40 -160 0 -160 0 0 40
0 40 -125 0 -125 0 0 40 0 40 -125 0 -125 0 0 40 0 40 -120 0 -120 0 0 45 0
45 -125 0 -125 0 0 40 0 40 -120 0 -120 0 0 40 0 40 -85 0 -85 0 0 40 0 40
-80 0 -80 0 0 40 0 40 -125 0 -125 0 0 45 0 45 -80 0 -80 0 0 40 0 40 -80 0
-80 0 0 40 0 40 -85 0 -85 0 0 40 0 40 -40 0 -40 0 0 40 0 40 -80 0 -80 0 0
40 0 40 -85 0 -85 0 0 45 0 45 -40 0 -40 0 0 40 0 40 -80 0 -80 0 0 40 0 40
-40 0 -40 0 0 40 0 40 -85 0 -85 0 0 40 0 40 -40 0 -40 0 0 45 0 45 -80 0 -80
0 0 40 0 40 -45 0 -45 0 0 40 0 40 -40 0 -40 0 0 40 0 40 -40 0 -40 0 0 40 0
40 -40 0 -40 0 0 45 0 45 -85 0 -85 0 0 40 0 40 -40 0 -40 0 0 40 0 40 -40 0
-40 0 0 40 0 40 -40 0 -40 0 0 40 0 40 -40 0 -40 0 0 40 0 40 -40 0 -40 0 0
45 0 45 -45 0 -45 0 0 40 0 40 -40 0 -40 0 0 40 0 40 -40 0 -40 0 0 40 0 40
-40 0 -40 0 0 85 0 85 -40 0 -40 0 0 40 0 40 -45 0 -45 0 0 40 0 40 -40 0 -40
0 0 40 0 40 -40 0 -40 0 0 85 0 85 -40 0 -40 0 0 40 0 40 -40 0 -40 0 0 80 0
80 120 0 120 0 0 40 0 40 125 0 125 0 0 40 0 40 120 0 120 0 0 45 0 45 125 0
125 0 0 40 0 40 120 0 120 0 0 40 0 40 125 0 125 0 0 40 0 40 125 0 125 0 0
40 0 40 120 0 120 0 0 45 0 45 125 0 125 0 0 40 0 40 120 0 120 0 0 40 0 40
125 0 125 0 0 40 0 40 120 0 120 0 0 40 0 40 125 0 125 0 0 45 0 45 125 0 125
0 0 40 0 40 120 0 120 0 0 40 0 40 125 0 125 0 0 40 0 40 120 0 120 0 0 40 0
40 165 0 165 0 0 40 0 40 125 0 125 0 0 45 0 45 120 0 120 0 0 40 0 40 125 0
125 0 0 -40 0 -40 40 0 40 0 0 -45 0 -45 40 0 40 0 0 -40 0 -40 80 0 80 0 0
-40 0 -40 45 0 45 0 0 -40 0 -40 40 0 40 0 0 -40 0 -40 80 0 80 0 0 -40 0 -40
40 0 40 0 0 -45 0 -45 85 0 85 0 0 -40 0 -40 80 0 80 0 0 -40 0 -40 85 0 85 0
0 -40 0 -40 80 0 80 0 0 -40 0 -40 80 0 80 0 0 -45 0 -45 125 0 125 0 0 -40 0
-40 165 0 165 0 0 -40 0 -40 205 0 205 0 0 -40 0 -40 735 0 735 0 0 40 0 40
245 0 245 0 0 40 0 40 125 0 125 0 0 40 0 40 120 0 120 0 0 45 0 45 85 0 85 0
0 40 0 40 80 0 80 0 0 40 0 40 80 0 80 0 0 40 0 40 85 0 85 0 0 40 0 40 40 0
40 0 0 45 0 45 40 0 40 0 0 40 0 40 40 0 40 0 0 40 0 40 40 0 40 0 0 40 0 40
45 0 45 0 0 40 0 40 40 0 40 0 0 85 0 85 40 0 40 0 0 80 0 80 40 0 40 0 0 80
0 80 40 0 40 0 0 165 0 165 45 0 45 0 0 285 0 285 -45 0 -45 0 0 165 0 165
-40 0 -40 0 0 85 0 85 -40 0 -40 0 0 80 0 80 -40 0 -40 0 0 40 0 40 -40 0 -40
0 0 85 0 85 -45 0 -45 0 0 40 0 40 -40 0 -40 0 0 40 0 40 -80 0 -80 0 0 40 0
40 -40 0 -40 0 0 40 0 40 -85 0 -85 0 0 40 0 40 -40 0 -40 0 0 45 0 45 -120 0
-120 0 0 40 0 40 -85 0 -85 0 0 40 0 40 -120 0 -120 0 0 40 0 40 -205 0 -205
0 0 40 0 40 -290 0 -290 0 0 45 0 45 -655 0 -655 0 0 -45 0 -45 -365 0 -365 0
0 -40 0 -40 -245 0 -245 0 0 -40 0 -40 -205 0 -205 0 0 -40 0 -40 -165 0 -165
0 0 -40 0 -40 -125 0 -125 0 0 -45 0 -45 -120 0 -120 0 0 -40 0 -40 -125 0
-125 0 0 -40 0 -40 -80 0 -80 0 0 -40 0 -40 -125 0 -125 0 0 -40 0 -40 -80 0
-80 0 0 -40 0 -40 -40 0 -40 0 0 -45 0 -45 -85 0 -85 0 0 -40 0 -40 -40 0 -40
0 0 -40 0 -40 -80 0 -80 0 0 40 0 40 -85 0 -85 0 0 40 0 40 -80 0 -80 0 0 45
0 45 -125 0 -125 0 0 40 0 40 -80 0 -80 0 0 40 0 40 -125 0 -125 0 0 40 0 40
-80 0 -80 0 0 40 0 40 -125 0 -125 0 0 40 0 40 -80 0 -80 0 0 45 0 45 -120 0
-120 0 0 40 0 40 -85 0 -85 0 0 40 0 40 -120 0 -120 0 0 40 0 40 -85 0 -85 0
0 40 0 40 -120 0 -120 0 0 45 0 45 -85 0 -85 0 0 120 0 120 40 0 40 0 0 205 0
205 45 0 45 0 0 205 0 205 40 0 40 0 0 245 0 245 40 0 40 0 0 205 0 205 40 0
40 0 0 205 0 205 40 0 40 0 0 205 0 205 45 0 45 0 0 165 0 165 40 0 40 0 0
-40 0 -40 40 0 40 0 0 -45 0 -45 80 0 80 0 0 -40 0 -40 85 0 85 0 0 -40 0 -40
80 0 80 0 0 -40 0 -40 80 0 80 0 0 -40 0 -40 125 0 125 0 0 -45 0 -45 165 0
165 0 0 -40 0 -40 490 0 490 0 0 40 0 40 165 0 165 0 0 45 0 45 120 0 120 0 0
40 0 40 85 0 85 0 0 40 0 40 40 0 40 0 0 40 0 40 80 0 80 0 0 40 0 40 45 0 45
0 0 45 0 45 40 0 40 0 0 40 0 40 40 0 40 0 0 40 0 40 40 0 40 0 0 40 0 40
-410 0 -410 0 0 40 0 40 -205 0 -205 0 0 45 0 45 -165 0 -165 0 0 40 0 40 -80
0 -80 0 0 40 0 40 -120 0 -120 0 0 40 0 40 -85 0 -85 0 0 40 0 40 -80 0 -80 0
0 40 0 40 -40 0 -40 0 0 45 0 45 -85 0 -85 0 0 40 0 40 -40 0 -40 0 0 40 0 40
-40 0 -40 0 0 40 0 40 -40 0 -40 0 0 40 0 40 -45 0 -45 0 0 45 0 45 -40 0 -40
0 0 40 0 40 -40 0 -40 0 0 40 0 40 -40 0 -40 0 0 40 0 40 -40 0 -40 0 0 85 0
85 -40 0 -40 0 0 245 0 245 40 0 40 0 0 205 0 205 40 0 40 0 0 205 0 205 40 0
40 0 0 160 0 160 80 0 80 0 0 -40 0 -40 85 0 85 0 0 -40 0 -40 80 0 80 0 0
-40 0 -40 85 0 85 0 0 -40 0 -40 80 0 80 0 0 -45 0 -45 125 0 125 0 0 -40 0
-40 80 0 80 0 0 -40 0 -40 120 0 120 0 0 -40 0 -40 165 0 165 0 0 -40 0 -40
695 0 695 0 0 40 0 40 45 0 45 0 0 40 0 40 -85 0 -85 0 0 40 0 40 -80 0 -80 0
0 40 0 40 -80 0 -80 0 0 45 0 45 -85 0 -85 0 0 40 0 40 -80 0 -80 0 0 40 0 40
-40 0 -40 0 0 40 0 40 -85 0 -85 0 0 40 0 40 -40 0 -40 0 0 40 0 40 -80 0 -80
0 0 45 0 45 -45 0 -45 0 0 40 0 40 -40 0 -40 0 0 40 0 40 -80 0 -80 0 0 40 0
40 -40 0 -40 0 0 40 0 40 -45 0 -45 0 0 45 0 45 -40 0 -40 0 0 40 0 40 -40 0
-40 0 0 40 0 40 -40 0 -40 0 0 40 0 40 -40 0 -40 0 0 40 0 40 -40 0 -40 0 0
45 0 45 -45 0 -45 0 0 40 0 40 -40 0 -40 0 0 40 0 40 -40 0 -40 0 0 40 0 40
-40 0 -40 0 0 80 0 80 -40 0 -40 0 0 45 0 45 -45 0 -45 0 0 80 0 80 -40 0 -40
0 0 80 0 80 -40 0 -40 0 0 205 0 205 40 0 40 0 0 205 0 205 40 0 40 0 0 205 0
205 45 0 45 0 0 40 0 40 6550 0 6550 0 0 -2125z"/>
<path d="M71480 48760 l0 -8720 2865 0 2865 0 0 3725 0 3725 85 0 85 0 0 -40
0 -40 40 0 40 0 0 -40 0 -40 40 0 40 0 0 -40 0 -40 40 0 40 0 0 -40 0 -40 45
0 45 0 0 -45 0 -45 40 0 40 0 0 -40 0 -40 40 0 40 0 0 -40 0 -40 40 0 40 0 0
-40 0 -40 40 0 40 0 0 -40 0 -40 40 0 40 0 0 -45 0 -45 45 0 45 0 0 -40 0 -40
40 0 40 0 0 -80 0 -80 40 0 40 0 0 -40 0 -40 40 0 40 0 0 -45 0 -45 40 0 40 0
0 -40 0 -40 45 0 45 0 0 -40 0 -40 40 0 40 0 0 -40 0 -40 40 0 40 0 0 -40 0
-40 40 0 40 0 0 -40 0 -40 40 0 40 0 0 -45 0 -45 45 0 45 0 0 -40 0 -40 40 0
40 0 0 -40 0 -40 40 0 40 0 0 -40 0 -40 40 0 40 0 0 -40 0 -40 40 0 40 0 0
-45 0 -45 40 0 40 0 0 -40 0 -40 45 0 45 0 0 -40 0 -40 40 0 40 0 0 -40 0 -40
40 0 40 0 0 -40 0 -40 40 0 40 0 0 -45 0 -45 40 0 40 0 0 -40 0 -40 45 0 45 0
0 -40 0 -40 40 0 40 0 0 -80 0 -80 40 0 40 0 0 -40 0 -40 40 0 40 0 0 -45 0
-45 40 0 40 0 0 -40 0 -40 45 0 45 0 0 -40 0 -40 40 0 40 0 0 -40 0 -40 40 0
40 0 0 -40 0 -40 40 0 40 0 0 -45 0 -45 40 0 40 0 0 -40 0 -40 40 0 40 0 0
-40 0 -40 45 0 45 0 0 -40 0 -40 40 0 40 0 0 -40 0 -40 40 0 40 0 0 -45 0 -45
40 0 40 0 0 -40 0 -40 40 0 40 0 0 -40 0 -40 45 0 45 0 0 -40 0 -40 40 0 40 0
0 -40 0 -40 40 0 40 0 0 -40 0 -40 40 0 40 0 0 -45 0 -45 40 0 40 0 0 -40 0
-40 45 0 45 0 0 -40 0 -40 40 0 40 0 0 -40 0 -40 40 0 40 0 0 -85 0 -85 40 0
40 0 0 -40 0 -40 40 0 40 0 0 -40 0 -40 45 0 45 0 0 -40 0 -40 40 0 40 0 0
-40 0 -40 40 0 40 0 0 -45 0 -45 40 0 40 0 0 -40 0 -40 40 0 40 0 0 -40 0 -40
40 0 40 0 0 -40 0 -40 45 0 45 0 0 -40 0 -40 40 0 40 0 0 -40 0 -40 40 0 40 0
0 -45 0 -45 40 0 40 0 0 -40 0 -40 40 0 40 0 0 -40 0 -40 45 0 45 0 0 -40 0
-40 40 0 40 0 0 -40 0 -40 40 0 40 0 0 -45 0 -45 40 0 40 0 0 -40 0 -40 40 0
40 0 0 -40 0 -40 45 0 45 0 0 -40 0 -40 40 0 40 0 0 -40 0 -40 40 0 40 0 0
-85 0 -85 40 0 40 0 0 -40 0 -40 40 0 40 0 0 -40 0 -40 40 0 40 0 0 -40 0 -40
45 0 45 0 0 -40 0 -40 40 0 40 0 0 -45 0 -45 80 0 80 0 0 45 0 45 40 0 40 0 0
40 0 40 45 0 45 0 0 40 0 40 40 0 40 0 0 40 0 40 40 0 40 0 0 40 0 40 40 0 40
0 0 40 0 40 40 0 40 0 0 45 0 45 45 0 45 0 0 40 0 40 40 0 40 0 0 40 0 40 40
0 40 0 0 40 0 40 40 0 40 0 0 40 0 40 40 0 40 0 0 45 0 45 40 0 40 0 0 80 0
80 45 0 45 0 0 40 0 40 40 0 40 0 0 40 0 40 40 0 40 0 0 45 0 45 40 0 40 0 0
40 0 40 40 0 40 0 0 40 0 40 45 0 45 0 0 40 0 40 40 0 40 0 0 40 0 40 40 0 40
0 0 40 0 40 40 0 40 0 0 45 0 45 40 0 40 0 0 40 0 40 45 0 45 0 0 40 0 40 40
0 40 0 0 40 0 40 40 0 40 0 0 40 0 40 40 0 40 0 0 45 0 45 40 0 40 0 0 40 0
40 40 0 40 0 0 40 0 40 45 0 45 0 0 40 0 40 40 0 40 0 0 40 0 40 40 0 40 0 0
45 0 45 40 0 40 0 0 80 0 80 40 0 40 0 0 40 0 40 45 0 45 0 0 40 0 40 40 0 40
0 0 40 0 40 40 0 40 0 0 45 0 45 40 0 40 0 0 40 0 40 40 0 40 0 0 40 0 40 45
0 45 0 0 40 0 40 40 0 40 0 0 40 0 40 40 0 40 0 0 45 0 45 40 0 40 0 0 40 0
40 40 0 40 0 0 40 0 40 40 0 40 0 0 40 0 40 45 0 45 0 0 40 0 40 40 0 40 0 0
45 0 45 40 0 40 0 0 40 0 40 40 0 40 0 0 40 0 40 40 0 40 0 0 40 0 40 45 0 45
0 0 40 0 40 40 0 40 0 0 40 0 40 40 0 40 0 0 45 0 45 40 0 40 0 0 80 0 80 40
0 40 0 0 40 0 40 45 0 45 0 0 40 0 40 40 0 40 0 0 45 0 45 40 0 40 0 0 40 0
40 40 0 40 0 0 40 0 40 40 0 40 0 0 40 0 40 40 0 40 0 0 40 0 40 45 0 45 0 0
45 0 45 40 0 40 0 0 40 0 40 40 0 40 0 0 40 0 40 40 0 40 0 0 40 0 40 40 0 40
0 0 40 0 40 45 0 45 0 0 40 0 40 40 0 40 0 0 45 0 45 40 0 40 0 0 40 0 40 40
0 40 0 0 40 0 40 40 0 40 0 0 40 0 40 45 0 45 0 0 40 0 40 40 0 40 0 0 45 0
45 40 0 40 0 0 80 0 80 40 0 40 0 0 40 0 40 40 0 40 0 0 40 0 40 40 0 40 0 0
45 0 45 45 0 45 0 0 40 0 40 40 0 40 0 0 40 0 40 40 0 40 0 0 40 0 40 40 0 40
0 0 40 0 40 85 0 85 0 0 -3725 0 -3725 2865 0 2865 0 0 8720 0 8720 -2990 0
-2990 0 0 -40 0 -40 -40 0 -40 0 0 -80 0 -80 -40 0 -40 0 0 -45 0 -45 -45 0
-45 0 0 -40 0 -40 -40 0 -40 0 0 -40 0 -40 -40 0 -40 0 0 -80 0 -80 -40 0 -40
0 0 -40 0 -40 -40 0 -40 0 0 -45 0 -45 -40 0 -40 0 0 -40 0 -40 -45 0 -45 0 0
-80 0 -80 -40 0 -40 0 0 -40 0 -40 -40 0 -40 0 0 -45 0 -45 -40 0 -40 0 0 -80
0 -80 -40 0 -40 0 0 -40 0 -40 -45 0 -45 0 0 -40 0 -40 -40 0 -40 0 0 -45 0
-45 -40 0 -40 0 0 -80 0 -80 -40 0 -40 0 0 -40 0 -40 -40 0 -40 0 0 -40 0 -40
-45 0 -45 0 0 -40 0 -40 -40 0 -40 0 0 -85 0 -85 -40 0 -40 0 0 -40 0 -40 -40
0 -40 0 0 -40 0 -40 -40 0 -40 0 0 -40 0 -40 -40 0 -40 0 0 -85 0 -85 -45 0
-45 0 0 -40 0 -40 -40 0 -40 0 0 -40 0 -40 -40 0 -40 0 0 -40 0 -40 -40 0 -40
0 0 -85 0 -85 -40 0 -40 0 0 -40 0 -40 -45 0 -45 0 0 -40 0 -40 -40 0 -40 0 0
-40 0 -40 -40 0 -40 0 0 -85 0 -85 -40 0 -40 0 0 -40 0 -40 -40 0 -40 0 0 -40
0 -40 -45 0 -45 0 0 -40 0 -40 -40 0 -40 0 0 -85 0 -85 -40 0 -40 0 0 -40 0
-40 -40 0 -40 0 0 -40 0 -40 -40 0 -40 0 0 -40 0 -40 -40 0 -40 0 0 -85 0 -85
-45 0 -45 0 0 -40 0 -40 -40 0 -40 0 0 -40 0 -40 -40 0 -40 0 0 -80 0 -80 -40
0 -40 0 0 -40 0 -40 -40 0 -40 0 0 -45 0 -45 -45 0 -45 0 0 -40 0 -40 -40 0
-40 0 0 -80 0 -80 -40 0 -40 0 0 -40 0 -40 -40 0 -40 0 0 -45 0 -45 -40 0 -40
0 0 -40 0 -40 -45 0 -45 0 0 -80 0 -80 -40 0 -40 0 0 -40 0 -40 -40 0 -40 0 0
-45 0 -45 -40 0 -40 0 0 -40 0 -40 -40 0 -40 0 0 -80 0 -80 -40 0 -40 0 0 -40
0 -40 -45 0 -45 0 0 -40 0 -40 -40 0 -40 0 0 -45 0 -45 -40 0 -40 0 0 -80 0
-80 -40 0 -40 0 0 -40 0 -40 -40 0 -40 0 0 -40 0 -40 -45 0 -45 0 0 -45 0 -45
-40 0 -40 0 0 -80 0 -80 -40 0 -40 0 0 -40 0 -40 -40 0 -40 0 0 -40 0 -40 -40
0 -40 0 0 -45 0 -45 -45 0 -45 0 0 -80 0 -80 -40 0 -40 0 0 -40 0 -40 -40 0
-40 0 0 -40 0 -40 -40 0 -40 0 0 -85 0 -85 -40 0 -40 0 0 -40 0 -40 -40 0 -40
0 0 -40 0 -40 -45 0 -45 0 0 -40 0 -40 -40 0 -40 0 0 -85 0 -85 -40 0 -40 0 0
-40 0 -40 -40 0 -40 0 0 -40 0 -40 -40 0 -40 0 0 -40 0 -40 -45 0 -45 0 0 -85
0 -85 -40 0 -40 0 0 -40 0 -40 -80 0 -80 0 0 85 0 85 -40 0 -40 0 0 40 0 40
-45 0 -45 0 0 40 0 40 -40 0 -40 0 0 40 0 40 -40 0 -40 0 0 85 0 85 -40 0 -40
0 0 40 0 40 -40 0 -40 0 0 40 0 40 -40 0 -40 0 0 40 0 40 -45 0 -45 0 0 85 0
85 -40 0 -40 0 0 40 0 40 -40 0 -40 0 0 40 0 40 -40 0 -40 0 0 40 0 40 -40 0
-40 0 0 80 0 80 -45 0 -45 0 0 45 0 45 -40 0 -40 0 0 40 0 40 -40 0 -40 0 0
40 0 40 -40 0 -40 0 0 40 0 40 -40 0 -40 0 0 85 0 85 -45 0 -45 0 0 40 0 40
-40 0 -40 0 0 40 0 40 -40 0 -40 0 0 40 0 40 -40 0 -40 0 0 85 0 85 -40 0 -40
0 0 40 0 40 -40 0 -40 0 0 40 0 40 -45 0 -45 0 0 40 0 40 -40 0 -40 0 0 80 0
80 -40 0 -40 0 0 45 0 45 -40 0 -40 0 0 40 0 40 -40 0 -40 0 0 40 0 40 -45 0
-45 0 0 80 0 80 -40 0 -40 0 0 45 0 45 -40 0 -40 0 0 40 0 40 -40 0 -40 0 0
40 0 40 -40 0 -40 0 0 80 0 80 -45 0 -45 0 0 45 0 45 -40 0 -40 0 0 40 0 40
-40 0 -40 0 0 40 0 40 -40 0 -40 0 0 80 0 80 -40 0 -40 0 0 40 0 40 -45 0 -45
0 0 45 0 45 -40 0 -40 0 0 40 0 40 -40 0 -40 0 0 40 0 40 -40 0 -40 0 0 80 0
80 -40 0 -40 0 0 45 0 45 -40 0 -40 0 0 40 0 40 -45 0 -45 0 0 40 0 40 -40 0
-40 0 0 80 0 80 -40 0 -40 0 0 45 0 45 -40 0 -40 0 0 40 0 40 -40 0 -40 0 0
40 0 40 -45 0 -45 0 0 80 0 80 -40 0 -40 0 0 40 0 40 -40 0 -40 0 0 45 0 45
-40 0 -40 0 0 40 0 40 -40 0 -40 0 0 80 0 80 -45 0 -45 0 0 40 0 40 -40 0 -40
0 0 45 0 45 -40 0 -40 0 0 40 0 40 -40 0 -40 0 0 80 0 80 -40 0 -40 0 0 40 0
40 -40 0 -40 0 0 45 0 45 -45 0 -45 0 0 40 0 40 -40 0 -40 0 0 80 0 80 -40 0
-40 0 0 40 0 40 -40 0 -40 0 0 40 0 40 -40 0 -40 0 0 45 0 45 -45 0 -45 0 0
80 0 80 -40 0 -40 0 0 40 0 40 -40 0 -40 0 0 40 0 40 -40 0 -40 0 0 45 0 45
-40 0 -40 0 0 40 0 40 -45 0 -45 0 0 80 0 80 -40 0 -40 0 0 40 0 40 -40 0 -40
0 0 45 0 45 -40 0 -40 0 0 40 0 40 -40 0 -40 0 0 80 0 80 -40 0 -40 0 0 40 0
40 -45 0 -45 0 0 40 0 40 -40 0 -40 0 0 45 0 45 -40 0 -40 0 0 80 0 80 -2335
0 -2335 0 0 40 0 40 -655 0 -655 0 0 -8720z"/>
</g>
</svg>
